<svg width="300" height="300" viewBox="0 0 300 300" fill="none" xmlns="http://www.w3.org/2000/svg">
    <path
        d="M88.3929 163.902C91.1501 166.468 88.3698 170.962 84.8421 169.641L12.5026 142.542C11.0361 141.993 10.0481 140.611 10.0018 139.045C9.95429 137.477 10.8554 136.037 12.2924 135.404L41.0029 122.641C42.2627 122.081 43.7352 122.328 44.7443 123.267L88.3929 163.902ZM286.751 48.2331L257.379 37.5133C255.036 36.6581 252.59 38.5032 252.769 40.9912L254.934 71.1626C255.121 73.7585 258.011 75.2153 260.208 73.8211L288.208 56.059C289.105 55.4668 289.744 54.5468 289.939 53.4851C290.13 52.4228 289.868 51.3289 289.216 50.4686L288.501 49.5259C288.053 48.9357 287.446 48.4881 286.751 48.2331ZM242.079 34.2142C240.749 33.738 239.197 34.0759 238.111 35.0286L181.683 87.949C180.139 89.3969 180.256 91.8822 181.93 93.1781L246.516 143.196C248.87 145.019 252.271 143.194 252.054 140.225L248.41 90.4233L244.599 37.5773C244.49 36.0596 243.505 34.7454 242.079 34.2142ZM242.648 157.302C245.629 156.835 246.607 153.03 244.222 151.183L142.475 72.4076C141.404 71.5776 139.979 71.3692 138.715 71.8612C137.448 72.3492 136.54 73.4636 136.309 74.8021L119.503 171.992C119.102 174.312 121.099 176.341 123.425 175.976L242.648 157.302ZM127.765 78.9156C128.179 76.5213 126.048 74.464 123.669 74.9626L33.4392 93.8789C32.0248 94.1763 30.895 95.2313 30.5119 96.6227C30.1236 98.0108 30.5443 99.5014 31.6 100.482L106.569 170.276C108.569 172.138 111.837 171.037 112.302 168.344L127.765 78.9156ZM134.968 181.98C132.41 182.38 131.194 185.358 132.742 187.434L170.949 238.699C172.201 240.38 174.654 240.559 176.137 239.078L244.137 171.189C246.494 168.835 244.465 164.84 241.175 165.356L134.968 181.98Z"
        fill="#EC6C7B" />
    <path
        d="M123.451 189.51C124.933 188.303 126.96 188.676 128.136 190.282L165.713 241.421C166.128 242.007 166.414 242.716 166.511 243.45C166.593 244.079 166.54 244.779 166.331 245.394C165.927 246.726 164.845 247.668 163.612 247.83L31.6196 266.418C28.0978 266.914 26.2308 262.393 29.0765 260.259L123.451 189.51Z"
        fill="#EC6C7B" />
</svg>